<?xml version="1.0" standalone="no"?>
<!DOCTYPE svg PUBLIC "-//W3C//DTD SVG 20010904//EN"
 "http://www.w3.org/TR/2001/REC-SVG-20010904/DTD/svg10.dtd">
<svg version="1.0" xmlns="http://www.w3.org/2000/svg"
 width="260.000000pt" height="260.000000pt" viewBox="0 0 260.000000 260.000000"
 preserveAspectRatio="xMidYMid meet">
<metadata>
Created by potrace 1.11, written by Peter Selinger 2001-2013 
</metadata>
<g transform="translate(0.000000,260.000000) scale(0.100000,-0.100000)"
fill="#e9e5d9" stroke="none">
<path d="M1268 2563 c-10 -2 -18 -9 -18 -15 0 -5 -7 -8 -15 -4 -8 3 -15 0 -15
-6 0 -6 -3 -8 -7 -5 -3 4 -12 2 -20 -4 -7 -6 -13 -8 -13 -5 0 4 -10 0 -22 -8
-27 -19 -41 -21 -33 -3 4 6 1 5 -7 -3 -21 -24 -65 -43 -83 -36 -9 3 -14 2 -11
-3 7 -11 -52 -33 -65 -25 -5 3 -12 -2 -15 -10 -3 -9 -10 -14 -14 -11 -5 3 -11
1 -15 -5 -3 -5 -13 -10 -21 -10 -9 0 -12 5 -8 12 4 7 3 8 -5 4 -6 -4 -9 -11
-6 -16 6 -9 -18 -20 -46 -20 -11 0 -18 -4 -15 -8 5 -8 -8 -12 -47 -13 -9 0
-15 -4 -12 -10 4 -5 -3 -9 -14 -9 -11 0 -23 -5 -26 -11 -4 -6 -13 -8 -21 -5
-8 3 -14 1 -14 -5 0 -6 -4 -7 -10 -4 -5 3 -10 1 -10 -5 0 -7 -7 -10 -15 -6 -8
3 -15 1 -15 -5 0 -6 -7 -8 -16 -5 -8 3 -12 2 -9 -4 3 -6 -2 -10 -12 -10 -11 0
-24 -5 -31 -12 -9 -9 -12 -9 -12 2 0 13 -2 13 -10 0 -5 -8 -13 -15 -17 -15 -4
-1 -18 -6 -29 -13 -12 -6 -24 -8 -28 -5 -3 3 -6 2 -6 -4 0 -10 -54 -28 -73
-24 -8 1 -23 -58 -19 -73 2 -5 -3 -13 -10 -17 -7 -5 -8 -9 -2 -9 15 0 10 -75
-6 -95 -11 -13 -10 -15 3 -9 16 6 18 -10 4 -33 -5 -8 -3 -13 4 -13 10 0 10 -3
1 -12 -13 -13 -16 -32 -4 -24 4 2 8 -4 8 -14 0 -10 -4 -16 -8 -14 -4 3 -8 0
-8 -5 0 -6 4 -11 8 -11 10 0 9 -30 -2 -48 -4 -6 -3 -12 1 -12 5 0 9 -9 10 -20
1 -11 -2 -18 -7 -15 -10 6 -8 -15 3 -32 5 -7 6 -13 3 -13 -2 0 -1 -13 4 -30 6
-21 5 -30 -3 -30 -7 0 -6 -4 3 -10 14 -9 7 -14 -15 -11 -5 1 -3 -4 6 -11 9 -7
15 -21 13 -30 -1 -10 2 -20 7 -24 5 -3 5 -13 -1 -24 -7 -13 -7 -21 1 -26 6 -3
9 -15 6 -25 -3 -10 -2 -21 2 -24 4 -2 7 -14 6 -27 -1 -13 2 -31 7 -40 6 -12 5
-18 -2 -18 -6 0 -4 -7 4 -16 21 -20 20 -25 -2 -18 -16 5 -16 5 1 -6 9 -6 15
-15 12 -21 -4 -5 -1 -9 6 -9 8 0 8 -4 -1 -15 -9 -11 -9 -15 -1 -15 7 0 10 -4
6 -9 -3 -5 -1 -12 4 -16 5 -3 8 -14 6 -25 -2 -11 0 -22 6 -25 14 -9 11 -27 -3
-20 -7 4 -6 0 4 -7 15 -13 28 -56 31 -105 0 -12 5 -19 9 -17 7 5 12 -18 9 -38
0 -5 4 -8 11 -8 6 0 9 -3 5 -6 -3 -4 3 -24 14 -46 11 -22 16 -37 10 -34 -5 4
-13 2 -16 -4 -4 -6 -3 -10 2 -9 27 5 35 -3 31 -26 -3 -14 -1 -28 5 -32 6 -3 7
-1 3 5 -4 7 -3 12 2 12 5 0 12 -9 15 -20 3 -13 1 -18 -6 -13 -6 3 1 -9 15 -28
15 -19 28 -43 30 -54 1 -10 11 -27 21 -37 9 -10 17 -25 17 -33 0 -8 5 -15 11
-15 6 0 9 -9 6 -20 -3 -10 -2 -18 2 -17 3 1 6 -2 6 -6 0 -5 8 -13 18 -18 9 -6
17 -19 17 -30 0 -11 3 -18 8 -16 4 3 16 -7 27 -22 12 -16 14 -22 4 -16 -8 6
-7 2 4 -7 10 -10 16 -22 13 -27 -4 -5 -1 -13 5 -17 8 -4 9 -3 5 4 -4 7 -2 12
3 12 6 0 11 -9 11 -21 0 -11 5 -17 10 -14 6 3 10 1 10 -5 0 -6 9 -21 20 -32
15 -17 17 -24 8 -31 -9 -6 -8 -7 4 -4 9 3 24 -3 34 -14 16 -17 16 -22 4 -30
-11 -8 -9 -9 8 -4 13 4 22 2 22 -4 0 -6 15 -26 34 -44 18 -17 32 -40 31 -50
-2 -9 1 -15 6 -11 5 3 7 10 4 15 -4 5 -3 9 2 9 4 -1 22 -19 38 -40 17 -21 34
-39 38 -40 13 0 37 -27 32 -34 -3 -3 -2 -4 1 -1 11 8 46 -16 41 -29 -3 -6 3
-13 13 -13 10 -1 29 -11 42 -23 13 -11 32 -29 43 -39 11 -10 28 -21 38 -24 9
-4 17 -10 17 -15 0 -4 9 -8 20 -9 13 -1 18 2 14 9 -5 8 -1 9 10 5 10 -4 15 -3
11 3 -3 6 -2 10 3 10 8 0 23 11 70 50 6 6 12 9 12 6 0 -3 19 13 43 34 23 22
47 38 54 35 8 -2 10 2 6 12 -5 12 -2 15 10 10 9 -3 19 -1 23 5 4 7 3 8 -4 4
-7 -4 -12 -5 -12 -1 0 10 73 70 82 67 4 -1 8 3 8 9 0 16 26 39 35 31 5 -4 5
-2 2 4 -9 15 82 116 97 107 6 -3 8 -3 4 2 -4 4 -3 14 3 22 6 7 8 13 5 13 -4 0
4 11 16 24 13 13 27 21 32 18 5 -3 6 0 2 6 -4 7 -4 17 0 23 5 8 9 8 14 -1 5
-8 9 -7 13 5 5 10 3 14 -4 9 -7 -4 -10 -1 -7 7 3 8 12 13 21 13 10 -1 13 4 10
14 -4 8 2 21 11 28 10 7 15 17 11 23 -3 6 -1 11 4 11 6 0 11 6 11 14 0 8 7 17
16 20 8 3 13 10 9 15 -3 6 3 14 12 20 10 6 14 11 9 11 -5 0 -1 10 10 22 12 13
13 18 4 13 -11 -6 -11 -4 2 11 9 10 16 21 16 24 -1 17 37 78 45 73 6 -4 7 -1
3 6 -9 14 10 67 32 94 11 12 11 17 3 17 -7 0 -9 5 -6 10 4 6 10 8 15 5 4 -3 6
5 2 17 -3 14 -1 19 6 14 7 -4 10 -2 7 7 -3 7 1 29 9 49 8 19 12 38 9 42 -4 3
2 6 13 7 11 0 14 3 6 6 -10 4 -10 8 -1 19 6 8 8 14 4 14 -4 0 -1 8 6 17 12 15
12 16 -1 8 -11 -7 -10 -2 4 19 11 18 13 26 5 21 -8 -3 -3 4 11 16 17 15 19 20
8 16 -23 -8 -23 1 0 26 12 15 13 18 2 12 -13 -8 -13 -7 -1 8 11 14 11 17 0 17
-9 0 -10 3 -4 8 6 4 12 16 13 27 2 11 9 23 15 27 8 5 7 8 -3 8 -13 0 -13 1 0
10 9 6 11 10 3 10 -7 0 -10 7 -7 15 4 8 11 12 18 8 8 -4 8 -3 0 6 -15 16 -6
53 10 44 6 -4 6 0 -2 9 -14 17 -13 38 3 51 7 6 6 10 -1 13 -7 3 -10 14 -7 24
3 11 10 17 16 13 6 -4 7 -1 1 8 -13 21 -14 38 -2 45 6 4 5 10 -3 15 -12 7 -12
9 0 9 11 0 11 3 1 15 -10 12 -9 15 6 15 16 0 17 2 4 10 -12 8 -13 11 -1 19 11
7 11 9 0 13 -12 4 -12 8 -1 20 10 12 10 18 1 23 -8 6 -7 10 2 16 12 7 12 9 0
9 -10 0 -11 3 -2 14 9 10 9 16 1 21 -8 5 -8 11 1 21 9 11 9 14 -1 14 -10 0
-10 3 0 15 10 12 10 15 0 15 -9 0 -9 4 1 17 12 15 12 16 -1 8 -13 -8 -13 -7
-1 8 10 13 10 17 1 17 -9 0 -10 3 -1 13 8 10 7 17 -1 25 -9 9 -9 12 0 12 10 0
10 5 1 21 -8 15 -8 19 0 15 6 -4 11 -2 11 3 0 6 -4 11 -8 11 -4 0 -8 9 -9 20
-1 13 2 18 10 14 8 -5 8 -3 0 7 -7 7 -13 17 -13 22 0 4 6 5 13 1 10 -6 10 -4
0 7 -7 7 -13 26 -13 41 0 18 -5 28 -15 28 -8 0 -15 4 -15 10 0 5 -7 7 -15 4
-8 -4 -15 -1 -15 5 0 6 -7 8 -15 5 -8 -4 -17 1 -21 9 -3 9 -12 13 -21 10 -8
-3 -18 -2 -22 3 -7 10 -69 35 -88 37 -7 0 -13 4 -13 9 0 4 -7 8 -15 8 -8 0
-15 6 -15 13 0 8 -4 7 -10 -3 -6 -10 -10 -11 -10 -2 0 6 -9 12 -20 12 -11 0
-20 5 -20 10 0 6 -3 9 -7 9 -23 -4 -43 2 -38 11 4 6 3 10 -2 9 -26 -5 -53 2
-47 12 4 8 0 9 -15 4 -12 -4 -21 -2 -21 4 0 6 -8 7 -17 4 -12 -5 -15 -2 -10
10 3 9 2 17 -3 17 -6 0 -10 -5 -10 -12 0 -6 -7 -3 -16 8 -8 10 -12 12 -8 4 6
-12 4 -13 -7 -2 -7 6 -21 12 -31 12 -10 0 -18 5 -18 11 0 5 -4 7 -10 4 -5 -3
-10 -2 -10 4 0 6 -7 8 -15 5 -8 -4 -15 -1 -15 5 0 6 -3 10 -7 10 -20 -3 -34 2
-28 11 3 6 1 10 -4 10 -6 0 -11 -5 -11 -11 0 -6 -7 -3 -16 5 -8 9 -20 14 -25
11 -5 -4 -9 -1 -9 4 0 6 -3 10 -7 10 -19 -3 -34 2 -29 9 3 5 -5 8 -17 8 -12
-1 -21 4 -20 10 1 6 -4 11 -12 11 -8 0 -12 -4 -9 -8 2 -5 -9 -3 -26 2 -16 6
-28 14 -26 18 5 8 -60 11 -86 4z"/>
</g>
</svg>
