<svg id="svg" version="1.1" width="400" height="400" xmlns="http://www.w3.org/2000/svg" xmlns:xlink="http://www.w3.org/1999/xlink" ><g id="svgg"><path id="path0" d="M317.005 167.744 C 301.012 173.387,292.601 196.548,299.010 217.298 C 308.081 246.665,351.167 246.306,360.133 216.788 C 369.884 184.685,345.993 157.516,317.005 167.744 M39.390 168.427 C 37.356 173.726,38.768 174.482,51.250 174.782 L 63.000 175.063 63.000 198.131 C 63.000 223.633,62.526 226.077,56.933 229.381 C 53.512 231.401,43.847 231.729,38.007 230.021 C 32.974 228.550,32.848 228.622,33.190 232.750 C 34.089 243.612,62.932 240.776,69.765 229.153 L 72.500 224.500 72.806 195.750 L 73.113 167.000 56.525 167.000 C 43.078 167.000,39.834 167.270,39.390 168.427 M99.455 168.257 C 99.190 168.948,99.091 184.810,99.236 203.507 L 99.500 237.500 104.250 237.805 L 109.000 238.110 109.000 202.555 L 109.000 167.000 104.469 167.000 C 101.753 167.000,99.744 167.504,99.455 168.257 M136.455 168.257 C 136.190 168.948,136.091 184.810,136.236 203.507 L 136.500 237.500 141.250 237.805 L 146.000 238.110 146.000 221.910 L 146.000 205.711 152.611 206.328 C 162.492 207.251,164.340 208.764,174.500 224.253 L 183.500 237.973 188.867 237.987 C 195.701 238.004,195.745 238.173,184.515 221.192 C 176.274 208.730,171.074 203.000,168.008 203.000 C 167.291 203.000,168.233 201.982,170.102 200.738 C 173.500 198.477,193.000 170.838,193.000 168.284 C 193.000 167.400,191.364 167.004,187.750 167.013 L 182.500 167.026 173.500 180.731 C 163.452 196.033,161.508 197.664,152.160 198.641 L 146.000 199.285 146.000 183.142 L 146.000 167.000 141.469 167.000 C 138.753 167.000,136.744 167.504,136.455 168.257 M214.000 202.500 L 214.000 238.000 218.485 238.000 L 222.969 238.000 223.235 209.571 L 223.500 181.142 242.000 208.659 C 261.942 238.321,261.652 238.000,268.434 238.000 L 273.000 238.000 273.000 202.500 L 273.000 167.000 268.500 167.000 L 264.000 167.000 264.000 195.690 L 264.000 224.381 245.479 196.940 C 224.769 166.255,225.432 167.000,218.809 167.000 L 214.000 167.000 214.000 202.500 M338.530 175.484 C 359.637 184.054,355.995 226.795,333.815 230.819 C 313.564 234.493,299.600 209.381,309.438 186.981 C 314.470 175.523,326.712 170.685,338.530 175.484 " stroke="45px" fill="currentColor" fill-rule="evenodd"></path></g></svg>